PathFileType	4	(X/Y/Z)	3_coords_data.trc
DataRate	CameraRate	NumFrames	NumMarkers	Units	OrigDataRate	OrigDataStartFrame	OrigNumFrames
30.0	30.0	8	21	m	30.0	61	71
Frame#	Time	THUMB_TIP	THUMB_IP	THUMB_MCP	THUMB_CMC	INDEX_TIP	INDEX_DIP	INDEX_PIP	INDEX_MCP	MIDDLE_TIP	MIDDLE_DIP	MIDDLE_PIP	MIDDLE_MCP	RING_TIP	RING_DIP	RING_PIP	RING_MCP	PINKY_TIP	PINKY_DIP	PINKY_PIP	PINKY_MCP	WRIST
X1	Y1	Z1	X2	Y2	Z2	X3	Y3	Z3	X4	Y4	Z4	X5	Y5	Z5	X6	Y6	Z6	X7	Y7	Z7	X8	Y8	Z8	X9	Y9	Z9	X10	Y10	Z10	X11	Y11	Z11	X12	Y12	Z12	X13	Y13	Z13	X14	Y14	Z14	X15	Y15	Z15	X16	Y16	Z16	X17	Y17	Z17	X18	Y18	Z18	X19	Y19	Z19	X20	Y20	Z20	X21	Y21	Z21
60	2.0	-0.04371820068359375	-0.02960569953918457	0.93347802734375	-0.06318899917602538	-0.03985029983520508	0.9491649780273438	-0.07952989959716797	-0.03918970108032226	0.9760419921875	-0.09380339813232422	-0.02032819938659668	1.0024199829101563	-0.025413700103759766	-0.013257900238037109	0.9208740234375	-0.046081901550292965	-0.014140999794006348	0.9154730224609375	-0.07104100036621094	-0.016302900314331056	0.9174860229492188	-0.10024400329589844	-0.021556299209594728	0.9462960205078125	-0.03330049896240234	0.006032479763031006	0.9207000122070312	-0.05189089965820313	0.008974889755249023	0.910219970703125	-0.07969180297851562	0.007980899810791016	0.9121110229492188	-0.10463800048828124	0.0013153300285339352	0.9461220092773438	-0.044805999755859374	0.02186549949645996	0.934614013671875	-0.05935499954223633	0.028243400573730468	0.92352099609375	-0.08603880310058594	0.029360200881958006	0.9226329956054687	-0.10563500213623046	0.02001919937133789	0.9550549926757812	-0.04871849822998047	0.042831401824951175	0.935875	-0.0662145004272461	0.047430801391601565	0.9367310180664062	-0.0846249008178711	0.04633169937133789	0.9439520263671874	-0.10130400085449219	0.03629090118408203	0.9667940063476562	-0.11969899749755859	-0.002201900005340576	1.0275899658203125
61	2.033333333333333	-0.04343569946289062	-0.024966999053955077	0.9324810180664063	-0.06253689956665039	-0.03544969940185547	0.9486630249023438	-0.07869129943847657	-0.03561980056762695	0.9758770141601563	-0.09334649658203124	-0.017595399856567384	1.0024500122070312	-0.026033000946044924	-0.007144919872283935	0.9196060180664063	-0.046610801696777344	-0.008743189811706542	0.914655029296875	-0.07152999877929687	-0.01183240032196045	0.9171599731445312	-0.09987159729003907	-0.018618499755859375	0.9463699951171874	-0.03378210067749023	0.012368300437927245	0.91789697265625	-0.05310020065307617	0.01445740032196045	0.9089149780273438	-0.08085769653320313	0.012184300422668458	0.9120880126953125	-0.10466300201416015	0.004127449989318847	0.9461019897460937	-0.045668399810791016	0.027534900665283205	0.9324769897460937	-0.06090909957885742	0.03313370132446289	0.9225339965820313	-0.08797309875488281	0.033081298828125	0.9229210205078126	-0.10666699981689454	0.022753499984741212	0.955301025390625	-0.050712299346923825	0.047875099182128907	0.9355770263671875	-0.06840679931640625	0.051611301422119144	0.9371430053710937	-0.08661640167236329	0.04972510147094727	0.9445029907226562	-0.10271600341796874	0.0390349006652832	0.9675239868164063	-0.11968299865722656	-0.0005189980268478391	1.027760009765625
62	2.066666666666667	-0.04366790008544922	-0.020778499603271484	0.9313709716796875	-0.06233779907226562	-0.03152239990234375	0.9481400146484374	-0.07816549682617188	-0.032517200469970704	0.9756119995117187	-0.09321489715576171	-0.01483139991760254	1.002530029296875	-0.026867000579833985	-0.0018367999792098999	0.9183759765625	-0.04770719909667969	-0.0040676798820495595	0.9139940185546875	-0.07221810150146485	-0.007885839939117432	0.9167899780273437	-0.09984190368652343	-0.015882399559020995	0.9462470092773437	-0.03457870101928711	0.018077600479125978	0.9148690185546875	-0.054884498596191406	0.019138099670410157	0.9075640258789063	-0.08216110229492188	0.01586649990081787	0.9120750122070312	-0.10540299987792968	0.0067772197723388675	0.945947021484375	-0.046869300842285154	0.03283620071411133	0.92997802734375	-0.06279019927978516	0.03749319839477539	0.9215289916992188	-0.0899740982055664	0.03640439987182617	0.9232009887695313	-0.10766699981689454	0.02531060028076172	0.9554420166015625	-0.05310390090942383	0.052437599182128904	0.9347960205078125	-0.0707531967163086	0.055315601348876954	0.9370640258789062	-0.088831298828125	0.05268470001220703	0.9446669921875	-0.10420099639892579	0.04145289993286133	0.9679190063476563	-0.11997200012207031	0.001118980050086975	1.0281600341796875
63	2.1	-0.043917999267578126	-0.016934299468994142	0.9307009887695312	-0.062106700897216795	-0.027911399841308592	0.9479169921875	-0.07758650207519531	-0.029645700454711914	0.9753939819335937	-0.09280049896240235	-0.012475799560546875	1.0023800048828124	-0.027941200256347658	0.003061019897460937	0.9170070190429688	-0.04875790023803711	0.00017300499975681302	0.913031982421875	-0.07325370025634766	-0.004458099842071533	0.9164219970703125	-0.09988009643554688	-0.013525099754333495	0.9464310302734374	-0.03558039855957031	0.023549999237060547	0.911698974609375	-0.05655239868164062	0.023396400451660155	0.9063870239257813	-0.08342009735107422	0.01898870086669922	0.9121380004882812	-0.10596399688720703	0.0088912296295166	0.94618701171875	-0.048142200469970704	0.03811949920654297	0.9272230224609375	-0.06529440307617188	0.041547298431396484	0.9202529907226562	-0.09198320007324219	0.03913059997558594	0.9231890258789063	-0.10876000213623047	0.027436599731445313	0.9558150024414063	-0.05585440063476563	0.05701689910888672	0.9335770263671875	-0.07382270050048828	0.058750198364257815	0.9366160278320312	-0.09136599731445312	0.05524020004272461	0.9448880004882813	-0.10581199645996094	0.043492298126220706	0.9683720092773438	-0.11975900268554687	0.002551609992980957	1.0280999755859375
64	2.1333333333333333	-0.043721099853515626	-0.013685600280761719	0.9305349731445313	-0.06175820159912109	-0.024717199325561524	0.9479910278320313	-0.07702239990234375	-0.027037099838256837	0.9756170043945313	-0.09259739685058593	-0.010445199966430663	1.0024600219726563	-0.029058000564575196	0.0076203298568725585	0.9152160034179687	-0.05000669860839844	0.003940049886703491	0.9120590209960937	-0.07390889739990235	-0.001381160020828247	0.9160750122070312	-0.0997040023803711	-0.01153439998626709	0.9468660278320312	-0.036963401794433595	0.02857119941711426	0.9084860229492188	-0.05828329849243164	0.027216699600219725	0.904698974609375	-0.0847677993774414	0.021720500946044923	0.9121060180664062	-0.10639299774169922	0.010658100128173828	0.9466110229492187	-0.049508399963378906	0.04322510147094726	0.9236890258789062	-0.06784449768066406	0.045164600372314456	0.91877099609375	-0.09396530151367187	0.041472599029541014	0.9234630126953125	-0.10958899688720704	0.02910099983215332	0.9559130249023438	-0.058807098388671875	0.06117240142822265	0.9320070190429688	-0.0767406005859375	0.061571998596191405	0.93606298828125	-0.09382949829101563	0.05724300003051758	0.9449860229492187	-0.1072760009765625	0.045221900939941405	0.9685540161132813	-0.12008000183105469	0.0038962700366973867	1.0286199951171875
65	2.1666666666666665	-0.04384439849853516	-0.011136099815368653	0.9303510131835937	-0.06161819839477539	-0.022182199478149416	0.9481309814453125	-0.07671080017089844	-0.025037099838256836	0.9756790161132812	-0.09265609741210938	-0.008759830474853516	1.0028900146484374	-0.030017799377441406	0.011193699836730957	0.9140269775390625	-0.05106069946289062	0.006985129833221436	0.9111370239257812	-0.07468540191650391	0.001172729969024658	0.9159979858398437	-0.09950379943847656	-0.009560810089111329	0.9468350219726562	-0.038209701538085936	0.0327958984375	0.9050250244140625	-0.060019901275634766	0.030331600189208986	0.9035609741210937	-0.08586440277099609	0.023922399520874025	0.9124849853515625	-0.10654499816894532	0.012478400230407714	0.9469229736328125	-0.05081539916992187	0.04748400115966797	0.9205419921875	-0.06973459625244141	0.048236801147460935	0.9176710205078125	-0.09543260192871093	0.04343899917602539	0.9236110229492187	-0.11050900268554688	0.030622699737548827	0.9567479858398438	-0.06152040100097656	0.06501339721679687	0.9306389770507812	-0.07927300262451172	0.06411170196533203	0.935885986328125	-0.0957051010131836	0.05902450180053711	0.9454039916992187	-0.10830400085449218	0.046672901153564456	0.96906298828125	-0.12043900299072266	0.00493002986907959	1.029030029296875
66	2.2	-0.04383160018920899	-0.009502459526062011	0.9301320190429687	-0.061628299713134764	-0.02032929992675781	0.9482520141601563	-0.07663150024414063	-0.0236382999420166	0.9757689819335937	-0.09276349639892578	-0.007620540142059326	1.003010009765625	-0.030812700271606444	0.014131500244140624	0.912447021484375	-0.05188370132446289	0.009415769577026367	0.91068798828125	-0.07528140258789062	0.003139830112457275	0.9161160278320313	-0.09962899780273438	-0.008259169578552246	0.947239990234375	-0.03935430145263672	0.036108898162841796	0.90222998046875	-0.06128710174560547	0.032790298461914065	0.9027919921875	-0.08655269622802735	0.025821800231933593	0.9130349731445313	-0.1066050033569336	0.013712800025939942	0.947198974609375	-0.05233660125732422	0.051030998229980466	0.917739990234375	-0.07195709991455078	0.05068349838256836	0.9166950073242187	-0.0966239013671875	0.04502080154418946	0.9240250244140625	-0.11119000244140625	0.031869600296020505	0.9574219970703125	-0.06413999938964844	0.06815840148925781	0.9289819946289063	-0.08154730224609374	0.06601789855957031	0.9354229736328125	-0.09710600280761719	0.060259201049804687	0.9457210083007812	-0.10926399993896484	0.04767559814453125	0.9700159912109375	-0.12072899627685547	0.005622360229492187	1.029050048828125
67	2.2333333333333334	-0.04396540069580078	-0.008425539970397949	0.9303309936523437	-0.06180849838256836	-0.019190000534057616	0.9485020141601562	-0.07699639892578125	-0.022884000778198244	0.9759229736328126	-0.0929833984375	-0.007162030220031738	1.0032000122070313	-0.031445199966430665	0.015847200393676757	0.9117420043945312	-0.05252489852905273	0.010866900444030762	0.910468994140625	-0.07583950042724609	0.004334670066833496	0.91622900390625	-0.09986869812011719	-0.007385210037231445	0.9473480224609375	-0.0401890983581543	0.03818989944458008	0.9009749755859375	-0.06213589859008789	0.0344109001159668	0.9025440063476563	-0.08696360015869141	0.027022899627685545	0.9133060302734375	-0.1069469985961914	0.01443120002746582	0.947427978515625	-0.05339179992675781	0.053101799011230466	0.916218017578125	-0.07311229705810547	0.052197498321533205	0.9161959838867187	-0.09743890380859375	0.046074001312255856	0.9244019775390625	-0.11149900054931641	0.03255339813232422	0.95756201171875	-0.06623770141601562	0.0703574981689453	0.928156005859375	-0.08324199676513672	0.06743219757080078	0.9355020141601562	-0.09833110046386719	0.061257999420166014	0.9461380004882812	-0.10984500122070312	0.04840790176391602	0.9701840209960938	-0.12130599975585937	0.005867159843444824	1.02952001953125
